<?xml version="1.0" standalone="no"?>
<!DOCTYPE svg PUBLIC "-//W3C//DTD SVG 20010904//EN"
 "http://www.w3.org/TR/2001/REC-SVG-20010904/DTD/svg10.dtd">
<svg version="1.0" xmlns="http://www.w3.org/2000/svg"
 width="619.000000pt" height="619.000000pt" viewBox="0 0 619.000000 619.000000"
 preserveAspectRatio="xMidYMid meet">
<metadata>
Created by potrace 1.14, written by Peter Selinger 2001-2017
</metadata>
<g transform="translate(0.000000,619.000000) scale(0.100000,-0.100000)"
fill="#000000" stroke="none">
<path d="M3271 5977 c-55 -28 -80 -101 -57 -168 16 -47 114 -169 135 -169 9 0
23 -4 30 -9 10 -6 1 -8 -27 -4 -31 4 -50 0 -78 -16 -20 -12 -39 -19 -42 -16
-3 3 1 5 9 5 11 0 11 2 1 8 -15 10 -72 3 -72 -8 0 -5 6 -11 13 -14 6 -3 -4 -5
-23 -5 -65 2 -81 -1 -75 -11 4 -6 10 -8 13 -6 4 2 18 -4 31 -13 l24 -18 -56
-23 c-59 -24 -67 -44 -16 -35 l30 5 -15 -29 c-8 -15 -13 -30 -11 -33 3 -2 -18
-31 -46 -64 -60 -70 -83 -117 -75 -156 5 -28 5 -28 -47 -28 -177 0 -344 -107
-458 -295 -22 -37 -24 -49 -23 -173 1 -82 5 -136 12 -140 5 -4 78 -7 162 -7
l152 0 28 110 c30 117 63 218 99 302 19 43 30 54 67 70 54 24 126 17 150 -13
14 -18 15 -18 4 4 -13 27 -4 28 60 6 25 -9 51 -18 58 -20 10 -3 9 -11 -5 -34
-16 -28 -26 -34 -46 -31 -5 1 -6 -3 -2 -9 3 -6 11 -8 16 -4 18 10 59 12 59 1
0 -21 -104 -207 -160 -285 -33 -46 -60 -87 -60 -92 0 -4 47 -8 104 -9 l103 -2
22 50 c11 27 25 53 31 56 5 3 1 -15 -10 -40 -11 -26 -20 -51 -20 -56 0 -5 18
-9 40 -9 l39 0 -6 50 c-7 56 16 106 44 96 14 -6 14 -3 -1 18 -36 56 -9 142 70
218 53 51 112 82 133 68 19 -11 5 -29 -35 -46 -27 -12 -36 -23 -49 -66 -8 -28
-23 -60 -32 -70 -15 -17 -15 -18 -1 -13 16 6 48 72 48 99 0 8 20 26 45 40 40
22 47 23 52 9 8 -21 -22 -43 -59 -43 -15 0 -28 -4 -28 -8 0 -11 61 -3 77 10 7
6 19 8 27 5 25 -10 25 3 0 30 -18 19 -21 29 -14 37 15 14 50 -27 50 -59 0 -26
-29 -55 -56 -56 -10 0 -28 -5 -39 -10 -15 -6 -10 -7 18 -4 44 6 98 31 111 52
4 8 22 21 40 29 17 7 25 13 17 14 -7 0 -29 -9 -47 -21 -30 -18 -34 -19 -34 -4
0 30 -30 75 -50 75 -10 0 -21 4 -25 9 -12 21 -89 -3 -130 -40 -20 -18 -21 -18
-55 39 -18 31 -41 67 -51 80 l-18 24 -16 -37 c-8 -21 -15 -40 -15 -43 0 -14
-53 -72 -66 -72 -17 0 -17 5 -4 30 12 22 3 29 -50 46 l-35 11 47 1 c50 0 97
22 117 54 8 14 -1 9 -27 -12 -34 -27 -49 -32 -90 -32 -27 1 -67 8 -88 17 -37
16 -38 17 -20 31 22 16 25 16 121 16 l70 0 -65 7 -65 6 43 19 c24 11 46 24 49
29 3 6 2 8 -3 5 -20 -12 -341 -165 -371 -177 -17 -7 -36 -10 -42 -7 -5 3 -11
1 -13 -6 -3 -8 -12 -9 -34 -1 -18 6 -37 7 -46 2 -8 -4 -27 -5 -43 -1 l-27 8
40 26 40 27 46 -24 c45 -24 45 -24 83 -5 26 12 50 36 71 69 17 28 35 51 40 51
5 0 22 -10 38 -22 16 -12 23 -15 17 -8 -18 19 -16 33 2 26 31 -12 13 4 -20 18
-67 28 -65 86 6 166 18 19 50 59 71 88 22 28 45 52 52 52 25 0 113 49 143 78
32 32 65 40 93 22 18 -11 17 -11 -45 -44 l-50 -26 45 6 c29 3 61 0 89 -10 24
-9 57 -16 73 -16 l30 0 -25 -29 c-19 -23 -24 -39 -22 -73 2 -40 -19 -98 -36
-98 -4 0 -12 -15 -19 -32 -37 -95 -39 -97 -91 -104 -27 -4 -49 -10 -49 -14 0
-4 17 -4 38 1 22 5 38 4 40 -1 6 -16 27 -11 66 15 41 28 45 21 16 -31 -12 -20
-18 -39 -15 -42 8 -9 52 37 65 68 7 16 18 31 25 34 11 4 10 -2 -1 -31 -9 -19
-13 -38 -10 -41 3 -2 8 2 12 11 3 9 21 26 40 38 56 34 108 143 101 210 -6 56
-18 81 -53 108 l-27 21 21 77 c80 312 93 365 89 369 -9 10 -67 22 -71 15 -12
-19 -87 -326 -83 -340 3 -9 8 -25 12 -36 l7 -20 -12 20 c-22 35 -43 45 -99 45
-31 0 -50 4 -44 8 16 10 -14 72 -58 122 -68 77 -82 117 -48 151 18 18 23 19
42 6 12 -8 23 -24 25 -35 2 -16 10 -20 33 -20 48 2 56 43 18 95 -28 40 -100
55 -148 30z m295 -466 c-4 -5 0 -12 6 -14 8 -3 6 -6 -4 -6 -18 -1 -24 10 -11
22 9 10 15 8 9 -2z m-496 -436 c0 -8 -9 -15 -20 -15 -25 0 -26 17 -2 23 9 3
18 5 20 6 1 0 2 -6 2 -14z m35 -15 c-3 -5 -10 -10 -16 -10 -5 0 -9 5 -9 10 0
6 7 10 16 10 8 0 12 -4 9 -10z m-377 -86 c15 -10 22 -25 22 -49 0 -65 -24 -91
-27 -29 -2 39 -26 84 -45 84 -7 0 -2 -9 10 -20 30 -28 33 -92 6 -120 -13 -13
-16 -13 -23 -1 -5 8 -6 24 -1 35 9 26 4 65 -12 83 -9 11 -8 17 3 24 21 13 42
11 67 -7z m52 1 c-12 -15 -30 -12 -30 6 0 5 10 9 21 9 18 0 19 -2 9 -15z m40
-9 c0 -8 -13 -24 -29 -35 l-28 -20 1 20 c0 11 12 27 26 34 31 18 30 18 30 1z
m-166 -27 c15 -23 13 -57 -8 -96 -11 -22 -14 -23 -26 -8 -11 13 -11 20 0 40 7
14 10 28 7 32 -10 9 -14 3 -21 -33 -5 -23 -2 -36 10 -49 17 -17 16 -19 -15
-47 -42 -38 -72 -34 -85 10 -7 25 -5 42 10 74 41 91 95 123 128 77z m-154
-114 c-4 -19 -6 -35 -3 -35 3 0 -3 -12 -13 -27 -15 -24 -15 -26 -1 -14 15 11
17 11 17 -1 0 -8 -7 -23 -15 -34 -36 -47 -36 47 1 117 19 38 24 37 14 -6z
m195 -21 c-29 -23 -65 -32 -65 -16 1 17 19 35 32 30 8 -3 22 0 33 8 32 23 32
4 0 -22z m-74 -63 c-13 -10 -47 -26 -75 -36 -85 -30 -83 -30 -63 -9 9 10 43
28 75 40 73 28 95 29 63 5z"/>
<path d="M2948 5969 c-2 -6 0 -43 3 -82 4 -40 10 -117 14 -172 4 -55 9 -106
11 -114 3 -8 0 -29 -7 -48 -8 -25 -16 -33 -34 -33 -41 0 -49 30 -60 226 -4 61
-10 135 -13 165 -7 54 -7 54 -42 54 l-35 0 1 -50 c2 -72 14 -263 20 -310 15
-114 45 -155 116 -155 59 0 104 25 121 68 14 35 14 60 1 217 -3 44 -8 112 -9
150 -2 39 -3 76 -4 83 -1 15 -78 17 -83 1z"/>
<path d="M2482 5908 c-33 -11 -33 -12 -28 -62 3 -28 8 -91 11 -141 7 -105 8
-105 -71 48 -31 59 -61 107 -67 107 -26 0 -87 -21 -87 -30 0 -16 132 -474 139
-482 12 -13 61 4 61 22 0 10 -18 79 -41 155 -23 75 -39 138 -36 141 2 3 38
-61 78 -141 61 -120 77 -145 94 -143 17 3 20 10 19 53 -1 60 -13 198 -20 240
-12 69 17 3 51 -120 21 -71 41 -134 45 -138 4 -5 21 -2 37 5 l30 13 -57 195
c-31 107 -63 215 -71 240 -17 50 -31 56 -87 38z"/>
<path d="M3911 5853 c-40 -20 -53 -45 -112 -220 -53 -158 -56 -208 -18 -249
22 -24 74 -40 118 -37 32 3 69 39 92 88 25 55 24 60 -15 72 -35 11 -35 11 -58
-36 -25 -51 -59 -66 -76 -34 -13 24 -10 36 39 188 45 141 59 165 96 165 31 0
39 -23 26 -73 -11 -39 -11 -39 25 -54 42 -17 48 -12 57 58 8 59 -8 96 -52 121
-43 26 -84 29 -122 11z"/>
<path d="M1998 5754 c-16 -8 -28 -16 -28 -18 0 -6 201 -460 205 -465 9 -8 56
11 62 25 5 14 -43 135 -129 324 -22 47 -46 100 -54 118 -17 36 -19 37 -56 16z"/>
<path d="M4335 5702 c-48 -10 -83 -53 -159 -196 -83 -158 -94 -201 -62 -250
19 -30 71 -56 109 -56 32 0 86 38 114 79 21 31 22 36 7 52 -29 32 -52 30 -75
-7 -30 -49 -54 -59 -79 -34 -24 24 -23 30 66 197 69 129 90 151 124 133 24
-13 26 -47 4 -78 -18 -26 -13 -37 27 -57 l30 -16 19 43 c21 47 25 84 11 121
-15 40 -91 78 -136 69z"/>
<path d="M1733 5609 c-18 -12 -33 -26 -33 -32 0 -7 20 -61 45 -121 25 -61 44
-116 43 -124 -2 -9 -41 27 -96 86 -93 100 -94 101 -120 88 -72 -38 -77 -22 63
-242 167 -263 149 -240 180 -220 16 11 24 23 21 32 -3 8 -42 71 -86 140 -45
69 -79 128 -77 130 2 2 54 -50 116 -116 62 -66 119 -120 127 -120 27 0 26 30
-4 102 -17 40 -42 105 -56 143 l-26 70 25 -30 c13 -17 51 -73 83 -125 33 -52
64 -96 69 -97 6 -2 20 4 32 14 l22 18 -74 120 c-110 180 -196 305 -210 305 -6
0 -27 -10 -44 -21z"/>
<path d="M3292 5470 c23 -14 100 -18 105 -5 2 6 -22 11 -59 13 -47 2 -59 0
-46 -8z"/>
<path d="M4665 5459 c-40 -24 -230 -262 -246 -308 -20 -58 23 -131 88 -150 40
-12 101 10 133 47 61 70 170 212 184 240 32 62 21 118 -31 156 -31 23 -101 31
-128 15z m94 -87 c7 -13 6 -27 -4 -45 -18 -34 -174 -229 -195 -242 -27 -17
-51 -13 -62 11 -9 18 -7 29 7 51 29 44 166 217 183 231 23 18 60 15 71 -6z"/>
<path d="M3260 5440 c-9 -6 -10 -10 -3 -10 6 0 15 5 18 10 8 12 4 12 -15 0z"/>
<path d="M3294 5442 c12 -20 -39 -45 -76 -37 -30 7 -31 6 -15 -9 14 -15 20
-15 49 -3 42 18 64 42 47 53 -8 4 -9 3 -5 -4z"/>
<path d="M3424 5393 c-3 -16 -10 -41 -15 -57 -15 -48 -10 -44 21 17 35 66 35
67 15 67 -8 0 -17 -12 -21 -27z"/>
<path d="M3245 5359 c-78 -31 -89 -34 -79 -18 5 8 1 8 -12 0 -34 -19 -54 -38
-54 -50 0 -7 11 -1 24 13 22 25 43 36 32 17 -6 -10 126 37 159 57 34 19 4 11
-70 -19z"/>
<path d="M1296 5309 c-32 -30 -67 -60 -77 -67 -24 -16 -24 -33 -1 -53 9 -8 58
-59 107 -113 50 -54 99 -108 110 -120 11 -12 39 -44 63 -70 34 -40 46 -47 61
-40 23 11 141 120 141 131 0 3 -10 17 -21 29 l-22 23 -50 -44 -50 -44 -31 32
c-17 18 -41 44 -54 59 l-23 26 33 31 33 31 -26 26 -26 25 -32 -27 -32 -27 -45
44 c-24 24 -44 49 -44 55 0 7 21 30 46 52 l46 39 -24 28 -24 28 -58 -54z"/>
<path d="M3367 5329 c7 -7 15 -10 18 -7 3 3 -2 9 -12 12 -14 6 -15 5 -6 -5z"/>
<path d="M3318 5316 c-22 -16 -22 -23 -3 -42 13 -14 15 -12 15 14 0 17 6 33
13 35 6 3 8 6 2 6 -5 0 -18 -6 -27 -13z"/>
<path d="M3354 5294 c-18 -14 -18 -15 4 -4 12 6 22 13 22 15 0 8 -5 6 -26 -11z"/>
<path d="M3148 5260 c37 -23 72 -19 72 8 0 13 -2 13 -14 -4 -14 -18 -16 -18
-44 -1 -17 9 -34 17 -39 17 -4 0 7 -9 25 -20z"/>
<path d="M3070 5250 c6 -11 18 -24 26 -27 28 -10 24 3 -7 26 -30 23 -31 23
-19 1z"/>
<path d="M3355 5240 c-3 -6 1 -7 9 -4 18 7 21 14 7 14 -6 0 -13 -4 -16 -10z"/>
<path d="M3295 5211 c-22 -11 -37 -20 -34 -20 10 -1 79 29 79 34 0 7 0 7 -45
-14z"/>
<path d="M5013 5184 c-15 -14 -96 -93 -180 -176 -159 -157 -162 -162 -118
-198 14 -12 26 -4 94 64 63 62 80 75 89 64 13 -17 6 -33 -61 -133 l-47 -69 27
-28 c15 -15 30 -28 33 -28 3 0 27 35 53 78 69 112 81 125 116 128 82 6 168
120 147 196 -7 25 -99 128 -115 128 -6 0 -23 -12 -38 -26z m67 -104 c14 -27 6
-50 -28 -82 -40 -37 -64 -42 -91 -17 l-23 21 49 49 c53 52 77 60 93 29z"/>
<path d="M2978 5123 c-28 -33 -31 -48 -4 -19 15 15 25 30 23 32 -2 2 -11 -4
-19 -13z"/>
<path d="M990 4984 c-37 -34 -87 -102 -79 -108 2 -1 58 -47 124 -102 169 -141
262 -214 273 -214 10 0 47 40 81 88 30 43 30 93 0 138 -26 37 -213 190 -266
218 -52 26 -88 21 -133 -20z m205 -129 c138 -107 148 -119 130 -163 -8 -17
-18 -32 -22 -32 -8 0 -47 31 -153 120 -25 21 -65 55 -90 75 -25 21 -44 43 -42
49 4 16 33 36 52 36 9 0 65 -38 125 -85z"/>
<path d="M3135 4980 c10 -11 20 -20 23 -20 3 0 -3 9 -13 20 -10 11 -20 20 -23
20 -3 0 3 -9 13 -20z"/>
<path d="M3725 4890 c-22 -29 -44 -44 -82 -56 -29 -10 -51 -19 -49 -22 8 -7
110 30 125 45 9 10 17 11 24 4 15 -15 -16 -46 -69 -68 -24 -10 -44 -21 -44
-25 0 -4 25 -4 55 -1 38 4 55 2 55 -6 0 -6 -1 -11 -2 -12 -2 0 -25 -3 -53 -6
-67 -7 -173 -49 -210 -83 -46 -43 -87 -44 -109 -2 -8 15 -15 20 -16 12 0 -8 7
-28 15 -44 9 -16 13 -38 10 -50 -5 -15 -4 -17 3 -7 8 11 10 11 14 0 3 -9 6 -8
11 5 4 10 3 15 -3 11 -6 -3 -10 -2 -10 3 0 6 10 12 23 16 12 3 34 17 50 31 38
36 34 15 -8 -40 l-36 -46 58 3 57 3 13 50 c7 28 11 58 9 67 -2 10 1 21 8 26
19 16 79 32 125 34 64 2 98 48 35 48 -31 0 -30 4 9 40 29 26 31 31 19 50 -11
19 -11 25 4 41 9 10 13 19 8 19 -5 -1 -22 -19 -39 -40z"/>
<path d="M5148 4749 c-190 -136 -218 -158 -218 -168 0 -3 9 -17 20 -31 l19
-25 85 59 85 58 39 -41 c32 -34 46 -41 76 -41 97 0 207 108 185 183 -11 39
-79 137 -95 137 -7 0 -95 -59 -196 -131z m212 -25 c0 -23 -45 -68 -80 -79 -25
-8 -70 18 -70 40 0 8 28 33 62 55 58 37 64 39 75 23 7 -9 13 -27 13 -39z"/>
<path d="M722 4621 c-27 -48 -43 -29 182 -208 94 -75 178 -143 187 -150 15
-12 19 -10 38 16 l22 30 -23 20 c-13 11 -34 28 -47 39 l-24 19 22 37 c12 20
26 36 30 36 4 0 27 -9 50 -21 47 -22 62 -17 75 27 6 19 -4 25 -106 64 -147 55
-363 130 -375 130 -5 0 -19 -18 -31 -39z m218 -97 c76 -29 92 -46 67 -71 -14
-14 -20 -13 -59 18 -118 91 -118 93 -8 53z"/>
<path d="M5460 4514 c-51 -22 -66 -39 -95 -112 -50 -125 -62 -147 -89 -161
-20 -11 -31 -12 -51 -3 -33 15 -33 52 1 81 l26 23 -24 26 c-12 15 -24 28 -25
30 -5 10 -47 -24 -63 -51 -51 -83 8 -192 102 -189 91 4 137 49 178 174 14 46
31 76 51 93 35 29 51 31 73 9 21 -20 20 -26 -5 -59 l-22 -27 26 -25 25 -26 31
31 c52 51 37 137 -31 176 -41 25 -68 27 -108 10z"/>
<path d="M1257 4448 c-7 -4 9 -15 38 -27 28 -12 57 -25 65 -30 20 -11 26 -103
25 -443 0 -313 5 -294 -82 -319 -49 -13 -57 -29 -15 -30 15 0 115 -1 222 -2
l195 -2 68 33 c126 62 176 187 118 299 -25 50 -67 86 -125 108 l-46 18 38 27
c49 36 68 58 87 103 20 48 19 103 -4 153 -43 94 -110 115 -377 117 -108 1
-201 -1 -207 -5z m448 -23 c144 -40 185 -196 80 -301 -23 -23 -58 -47 -78 -53
-21 -7 -37 -16 -37 -20 0 -4 24 -13 53 -20 105 -23 167 -88 175 -186 4 -44 0
-61 -24 -104 -48 -89 -136 -132 -268 -133 -112 -1 -277 5 -273 9 2 2 28 11 57
21 l53 17 1 364 c1 399 3 385 -59 397 -19 3 -35 9 -35 13 0 10 318 6 355 -4z"/>
<path d="M1532 4389 c-18 -4 -36 -10 -40 -13 -4 -4 -7 -76 -7 -159 l0 -152 69
2 c55 1 83 8 132 33 35 17 72 42 83 57 60 75 38 178 -45 218 -40 19 -136 26
-192 14z m142 -29 c92 -47 93 -176 2 -245 -29 -22 -50 -29 -105 -33 l-69 -5 2
139 c1 77 5 144 9 151 10 16 124 11 161 -7z"/>
<path d="M1491 4006 c-8 -11 -5 -275 4 -313 7 -30 63 -47 139 -40 143 13 231
92 221 197 -11 104 -111 160 -293 165 -34 0 -66 -4 -71 -9z m199 -23 c47 -19
70 -41 92 -90 50 -113 -38 -225 -179 -227 -97 -1 -101 7 -98 181 2 76 3 142 4
146 2 13 143 6 181 -10z"/>
<path d="M2180 4452 c-90 -1 -168 -6 -173 -11 -5 -5 13 -17 40 -26 91 -34 85
-8 89 -390 2 -185 -1 -347 -6 -360 -6 -15 -25 -29 -57 -41 -100 -36 -102 -36
290 -36 115 0 213 4 218 9 5 5 12 53 15 107 7 111 0 117 -41 35 -35 -69 -52
-76 -172 -77 -88 0 -105 2 -115 17 -10 14 -14 105 -16 349 -4 379 -10 355 92
387 48 15 73 33 49 36 -33 3 -68 4 -213 1z m135 -24 c4 -4 -4 -10 -18 -13 -14
-4 -34 -16 -44 -27 -16 -18 -18 -41 -17 -251 2 -417 4 -451 19 -471 12 -16 29
-19 137 -20 68 -1 129 -4 136 -6 14 -5 21 4 41 50 9 21 10 17 8 -30 l-2 -55
-255 -2 c-249 -2 -272 2 -174 27 26 6 43 17 46 28 3 13 2 522 -1 704 -1 35 -2
37 -53 50 -48 12 -50 13 -23 18 44 8 192 6 200 -2z"/>
<path d="M2897 4452 c-208 -2 -268 -5 -264 -15 2 -6 22 -19 44 -27 78 -29 73
-3 73 -379 0 -185 -3 -346 -6 -358 -4 -15 -21 -27 -54 -38 -27 -9 -54 -23 -60
-31 -11 -12 3 -14 101 -14 63 -1 192 -2 288 -5 95 -2 179 -1 187 2 21 8 42
187 23 199 -5 3 -18 -15 -29 -40 -34 -76 -50 -83 -189 -81 -68 1 -126 7 -133
13 -10 8 -13 46 -12 144 1 73 2 141 3 151 1 15 12 17 92 17 50 0 99 -5 111
-11 11 -6 31 -36 45 -67 14 -33 27 -51 32 -44 11 17 13 282 2 282 -5 0 -19
-15 -30 -34 -12 -19 -28 -37 -37 -40 -9 -3 -60 -6 -115 -6 l-100 0 3 148 3
147 115 1 c63 1 123 -3 133 -8 11 -5 30 -34 43 -64 13 -30 29 -52 34 -49 12 7
14 205 3 206 -5 0 -15 1 -23 2 -8 1 -136 1 -283 -1z m291 -61 c2 -28 0 -41 -7
-36 -6 3 -11 15 -11 26 0 16 -4 18 -27 12 -16 -4 -84 -7 -153 -7 -76 0 -128
-4 -132 -11 -4 -5 -8 -80 -8 -165 l0 -155 116 -2 c68 -1 121 -6 127 -12 17
-17 27 -13 37 12 6 16 9 5 8 -43 0 -53 -1 -59 -8 -32 -10 42 -11 43 -46 34
-16 -5 -73 -8 -127 -7 -57 1 -101 -3 -104 -9 -4 -5 -6 -78 -5 -160 3 -192 -5
-184 168 -185 70 -1 135 -6 146 -12 21 -11 37 1 38 28 0 6 5 15 11 19 8 4 9
-6 5 -36 -3 -24 -8 -45 -11 -48 -10 -10 -495 -2 -495 8 0 4 20 13 45 19 25 6
46 15 46 19 9 53 13 727 5 740 -3 5 -26 15 -51 22 -24 7 -43 15 -41 19 2 3
109 6 238 6 l233 0 3 -44z"/>
<path d="M3785 4449 c-166 -23 -307 -102 -382 -214 -51 -78 -72 -153 -70 -255
2 -72 7 -95 33 -150 66 -139 199 -243 344 -267 100 -16 241 -7 332 23 57 19
68 30 74 86 3 23 9 59 14 78 29 110 17 115 -49 19 -53 -77 -66 -88 -150 -116
-132 -43 -258 -16 -351 77 -67 66 -99 131 -113 228 -39 266 178 455 456 397
69 -14 88 -31 119 -109 38 -96 48 -85 48 52 l0 119 -37 11 c-82 24 -190 32
-268 21z m238 -29 l47 -12 -1 -67 -1 -66 -16 50 c-17 49 -18 50 -72 61 -107
21 -260 0 -354 -49 -114 -60 -188 -204 -179 -349 11 -205 161 -362 355 -372
49 -2 142 7 183 19 6 1 25 6 42 10 26 6 37 17 58 59 l24 51 -6 -60 c-3 -33 -9
-65 -14 -71 -22 -27 -134 -49 -254 -49 -115 0 -123 1 -181 31 -34 17 -81 47
-104 65 -120 97 -181 265 -150 416 45 222 230 356 480 349 52 -2 116 -9 143
-16z"/>
<path d="M4204 4430 c-18 -7 -18 -7 1 -17 11 -6 37 -16 58 -23 25 -8 42 -21
48 -37 11 -29 6 -679 -6 -706 -4 -10 -30 -24 -61 -33 -48 -14 -79 -32 -57 -35
4 0 90 -2 191 -3 192 -3 217 4 128 34 -26 9 -52 22 -59 29 -14 14 -21 321 -7
321 5 0 85 -75 177 -168 206 -206 253 -235 377 -236 45 -1 81 3 82 9 2 6 -37
30 -87 54 -85 41 -100 53 -261 216 -94 96 -176 181 -181 191 -8 14 -4 23 19
42 16 13 72 65 124 116 135 130 188 171 258 202 34 15 62 30 62 35 0 4 -81 8
-181 8 -187 1 -206 -4 -128 -36 21 -8 39 -19 39 -24 0 -14 -265 -267 -290
-277 -12 -5 -16 28 -14 103 1 39 3 93 3 122 l1 51 48 18 c26 9 54 23 62 31 12
11 -8 13 -125 14 -77 0 -154 2 -171 3 -17 1 -39 -1 -50 -4z m272 -22 c4 -4 -5
-12 -19 -17 -16 -6 -29 -21 -33 -38 -4 -15 -8 -179 -8 -364 -1 -368 -2 -359
59 -385 27 -12 18 -13 -87 -14 -65 0 -118 2 -118 5 0 3 20 10 45 16 25 6 48
15 51 20 2 5 7 175 10 378 l4 370 -42 12 c-70 20 -63 24 36 24 52 0 98 -3 102
-7z m462 -3 c3 -2 -6 -9 -20 -14 -36 -14 -130 -91 -263 -218 -65 -62 -122
-113 -127 -113 -30 0 13 -56 160 -206 181 -185 215 -214 301 -256 l56 -27 -40
5 c-96 14 -140 46 -348 257 l-199 201 44 40 c23 23 77 71 118 108 233 209 228
202 135 218 -5 1 1 5 15 9 26 7 160 4 168 -4z"/>
<path d="M589 4315 c-15 -8 -34 -32 -43 -55 -41 -103 -9 -136 218 -229 159
-65 206 -69 247 -23 34 38 46 92 29 133 -14 32 -68 74 -110 84 -21 5 -27 1
-37 -24 -12 -34 -10 -37 45 -65 38 -19 44 -59 12 -76 -16 -9 -47 1 -167 50
-168 68 -189 83 -170 120 14 29 29 31 76 12 18 -7 34 -12 36 -10 1 2 10 17 18
34 l16 31 -35 16 c-42 21 -100 21 -135 2z"/>
<path d="M5485 4106 c-122 -39 -226 -75 -232 -79 -13 -8 42 -187 60 -199 6 -3
23 0 38 8 l28 14 -19 56 c-11 31 -17 60 -14 65 4 8 136 51 140 46 1 -1 9 -19
18 -40 13 -33 19 -37 38 -32 37 11 41 21 31 63 l-10 40 49 16 c79 25 85 23
105 -40 17 -54 18 -55 47 -50 40 8 41 10 26 58 -29 101 -52 148 -68 147 -9 0
-116 -33 -237 -73z"/>
<path d="M421 3869 c-17 -49 -14 -66 17 -78 15 -5 122 -52 237 -104 136 -61
212 -90 217 -83 3 6 8 22 10 36 2 21 -4 28 -39 45 -61 29 -66 37 -51 71 17 40
21 41 78 34 50 -6 50 -6 59 24 4 17 5 34 2 38 -8 9 -176 26 -432 44 l-86 6
-12 -33z m311 -65 c13 -8 9 -44 -5 -50 -12 -4 -154 50 -167 63 -6 7 162 -7
172 -13z"/>
<path d="M5783 3849 c-6 -6 -8 -23 -3 -44 7 -30 5 -34 -19 -39 -14 -3 -111
-23 -214 -44 -103 -22 -190 -41 -192 -44 -3 -3 -2 -19 1 -36 8 -38 7 -38 144
-12 58 11 121 23 140 26 19 3 38 8 41 9 3 2 28 7 55 10 27 4 53 8 57 9 5 0 14
-15 21 -34 10 -31 15 -35 41 -32 16 2 32 5 34 7 4 4 -38 216 -46 228 -6 11
-47 9 -60 -4z"/>
<path d="M82 3352 c-35 -5 -22 -22 33 -43 26 -10 53 -23 59 -29 14 -14 10
-708 -5 -726 -6 -7 -33 -20 -60 -29 -55 -18 -72 -35 -37 -35 65 -2 326 -2 343
-1 20 2 20 2 1 16 -11 8 -26 15 -34 15 -7 0 -28 11 -47 25 l-33 26 -1 147 c-1
81 2 152 6 158 9 12 447 14 459 2 3 -4 6 -76 5 -160 -2 -172 -6 -183 -78 -203
-20 -6 -38 -15 -40 -21 -5 -14 353 -19 361 -5 3 5 -18 17 -47 28 -32 12 -57
29 -64 44 -18 35 -13 690 5 712 8 9 36 23 63 32 51 17 62 30 32 36 -10 2 -92
4 -182 4 -180 0 -208 -10 -116 -39 37 -11 59 -24 64 -38 8 -22 6 -286 -2 -295
-7 -6 -447 -4 -458 2 -11 7 -6 292 6 304 6 5 32 18 59 28 88 32 70 41 -86 41
-79 1 -152 3 -163 5 -11 2 -30 1 -43 -1z m247 -42 c-44 -23 -45 -28 -47 -214
-1 -101 2 -136 11 -137 7 -1 120 -2 252 -4 154 -1 248 -6 261 -13 12 -6 24 -9
27 -6 3 3 6 84 7 179 l0 173 -57 21 -58 20 117 -1 c65 0 116 -4 113 -8 -2 -4
-18 -13 -35 -20 -19 -8 -33 -22 -37 -39 -4 -14 -7 -178 -7 -364 l-1 -339 26
-21 c14 -12 34 -27 45 -33 14 -8 -11 -10 -100 -8 -64 1 -119 4 -122 6 -2 3 21
10 51 17 54 12 55 13 56 49 4 204 5 329 1 339 -3 9 -9 10 -22 3 -11 -6 -127
-10 -275 -10 l-257 0 4 -171 c3 -185 0 -175 64 -216 15 -10 -2 -12 -93 -12
-110 1 -138 10 -68 23 19 4 40 13 47 20 10 10 13 95 13 382 l0 369 -50 17 -50
16 110 1 110 0 -36 -19z"/>
<path d="M1545 3343 c-261 -54 -412 -265 -371 -521 37 -228 221 -374 471 -373
129 1 190 17 277 72 245 157 282 497 76 700 -56 56 -152 112 -213 125 -61 12
-172 11 -240 -3z m241 -14 c144 -28 288 -175 323 -330 21 -90 5 -212 -39 -299
-25 -49 -105 -137 -152 -166 -139 -88 -332 -91 -473 -9 -222 131 -284 453
-126 650 67 83 182 146 297 164 53 8 90 6 170 -10z"/>
<path d="M1548 3280 c-75 -23 -101 -39 -158 -94 -143 -139 -152 -370 -20 -536
84 -106 246 -161 385 -130 261 58 389 308 281 551 -79 178 -293 270 -488 209z
m169 -14 c100 -12 201 -93 256 -205 30 -61 32 -72 32 -171 0 -87 -4 -113 -22
-153 -79 -171 -243 -246 -424 -194 -102 30 -178 98 -231 207 -54 111 -47 258
18 361 38 60 119 126 177 143 85 24 93 24 194 12z"/>
<path d="M2299 3340 c-18 -4 -19 -7 -8 -16 8 -6 31 -17 52 -24 70 -22 67 -3
67 -395 0 -392 3 -373 -67 -395 -71 -22 -69 -20 -55 -29 7 -4 94 -8 193 -9
193 -2 215 5 122 38 -29 10 -57 21 -62 25 -13 8 -15 291 -2 299 4 3 60 -49
122 -116 222 -238 249 -259 349 -266 38 -2 61 1 75 11 20 15 19 16 -10 26 -60
22 -81 37 -160 116 -85 84 -228 241 -233 256 -2 5 4 9 13 9 22 0 86 34 124 66
96 80 101 247 9 330 -12 12 -43 32 -68 45 -40 21 -61 23 -200 26 -85 2 -174 4
-197 6 -23 1 -52 0 -64 -3z m399 -25 c89 -16 154 -81 169 -168 9 -52 9 -52 0
-102 -10 -63 -80 -130 -162 -154 -22 -7 -47 -15 -55 -17 -10 -4 0 -19 35 -52
28 -27 96 -98 153 -159 56 -61 130 -130 163 -152 48 -32 56 -41 38 -41 -40 1
-104 36 -150 82 -24 25 -93 98 -154 164 -179 194 -162 179 -186 158 -12 -11
-24 -19 -28 -19 -10 0 -10 -298 0 -317 5 -9 25 -22 44 -29 19 -7 35 -16 35
-20 0 -3 -48 -5 -107 -4 -144 3 -156 5 -113 16 19 6 47 15 63 21 l27 10 1 332
c1 182 2 340 2 351 1 68 -1 72 -50 86 -40 11 -44 14 -24 19 31 7 253 4 299 -5z"/>
<path d="M2552 3282 c-12 -2 -26 -11 -32 -21 -5 -10 -8 -92 -7 -182 l2 -164
76 1 c129 2 214 52 238 141 39 146 -94 254 -277 225z m135 -35 c55 -29 85 -78
85 -141 0 -62 -24 -111 -70 -141 -38 -25 -133 -48 -159 -38 -21 8 -17 302 4
325 19 21 95 18 140 -5z"/>
<path d="M3259 3330 c-7 -5 -10 -50 -9 -141 6 -330 5 -610 -2 -637 -6 -23 -18
-34 -58 -50 -27 -12 -50 -25 -50 -31 0 -5 68 -9 173 -8 110 1 171 6 168 12 -2
6 -30 21 -62 34 l-59 23 -1 52 c-5 351 -5 507 2 518 8 13 14 8 265 -258 166
-176 172 -182 249 -270 119 -135 109 -128 165 -125 l26 1 -1 373 c-1 204 1
385 5 402 4 23 17 35 64 58 33 16 54 32 48 36 -9 5 -295 7 -351 2 -26 -2 8
-28 54 -41 55 -15 65 -27 71 -82 6 -63 6 -519 0 -525 -6 -6 -53 41 -180 177
-44 47 -113 121 -155 165 -42 45 -89 96 -106 116 -145 167 -185 206 -214 206
-17 0 -35 -3 -42 -7z m105 -63 c28 -29 75 -79 105 -112 54 -59 264 -283 413
-439 43 -45 88 -100 100 -123 13 -24 25 -43 28 -43 6 0 2 700 -4 717 -3 7 -21
15 -40 19 -63 11 -39 19 60 20 101 0 104 -3 38 -42 -18 -11 -19 -31 -19 -405
l0 -394 -22 -3 c-25 -4 -28 1 -14 26 9 18 -1 30 -153 192 -28 30 -110 118
-181 195 -209 225 -229 247 -293 315 -33 35 -64 61 -68 57 -4 -4 -2 -24 6 -45
9 -27 14 -110 16 -302 2 -146 5 -290 8 -319 4 -57 22 -81 57 -81 10 0 20 -4
23 -9 7 -11 -112 -18 -169 -10 l-40 5 43 12 c23 7 43 18 43 25 1 7 1 178 0
381 0 239 -4 373 -11 380 -5 5 -10 16 -10 23 0 28 36 11 84 -40z"/>
<path d="M4347 3318 c-15 -9 -6 -18 56 -48 37 -18 53 -32 58 -52 4 -14 6 -175
5 -357 -1 -318 -2 -331 -21 -345 -11 -9 -34 -18 -52 -22 -35 -7 -67 -33 -42
-35 8 0 137 -1 288 -3 323 -2 309 -6 312 94 2 97 0 112 -12 104 -6 -3 -19 -25
-28 -48 -29 -66 -36 -69 -180 -70 -71 0 -133 3 -137 7 -10 10 -19 257 -10 290
5 22 11 24 78 25 127 2 136 -2 164 -63 14 -30 30 -57 35 -60 10 -7 10 -6 13
153 2 116 -6 152 -25 119 -36 -62 -48 -67 -153 -68 -63 -1 -101 3 -105 10 -6
9 -8 173 -2 262 l1 27 115 1 c63 1 123 -3 133 -8 11 -6 30 -35 42 -66 23 -58
39 -71 41 -32 1 34 1 149 0 172 -1 20 -8 20 -282 20 -154 0 -286 -3 -292 -7z
m552 -58 c-1 -43 -1 -44 -11 -17 -9 25 -14 28 -37 21 -14 -4 -81 -7 -149 -6
-117 3 -123 2 -130 -19 -5 -11 -8 -87 -8 -167 l1 -147 120 -5 c66 -3 125 -8
132 -13 7 -4 16 0 22 10 11 19 12 17 15 -34 2 -37 -9 -44 -17 -12 -4 14 -10
18 -19 13 -7 -5 -63 -9 -124 -10 -61 0 -116 -4 -122 -8 -6 -3 -9 -54 -7 -133
2 -71 4 -140 4 -155 2 -51 20 -58 162 -58 74 0 139 -5 151 -11 23 -12 27 -10
33 21 3 13 8 27 12 31 10 10 8 -64 -1 -80 -5 -8 -80 -11 -252 -11 -223 0 -286
7 -205 23 58 12 57 1 56 402 l0 369 -55 17 c-74 22 -55 24 213 24 l217 0 -1
-45z"/>
<path d="M5249 3313 c0 -10 0 -189 1 -398 2 -428 6 -400 -75 -428 -76 -27 -54
-37 79 -36 69 1 126 5 126 9 0 4 -36 6 -81 5 -44 -1 -82 2 -84 5 -2 4 13 12
35 19 27 8 42 19 45 34 3 12 4 188 3 391 -2 285 -6 370 -15 374 -22 7 -14 22
11 22 23 0 30 -7 305 -306 93 -101 284 -305 329 -352 24 -24 50 -60 59 -79 8
-19 17 -32 21 -29 7 8 11 669 4 704 -3 17 -13 24 -43 28 -73 12 -49 22 54 22
84 1 99 -1 83 -11 -66 -43 -60 -2 -60 -441 l1 -396 -24 0 c-20 0 -22 4 -17 25
5 21 -3 35 -47 83 -30 32 -119 127 -199 212 -188 199 -188 199 -283 305 -164
180 -167 182 -167 158 0 -12 5 -34 10 -48 6 -15 12 -160 13 -333 2 -169 7
-315 12 -326 4 -10 26 -27 49 -37 31 -14 35 -19 19 -19 -42 0 -24 -15 21 -18
63 -3 66 14 6 35 -92 32 -87 13 -89 339 l-2 288 22 -19 c23 -22 155 -157 210
-216 64 -69 216 -234 268 -290 28 -31 68 -78 89 -103 20 -25 44 -46 52 -47 8
-1 27 -2 43 -3 15 -2 28 0 28 3 1 3 2 182 3 396 1 215 5 396 9 402 4 7 32 23
63 37 30 14 53 30 50 35 -3 4 -74 9 -158 9 -217 1 -251 -9 -149 -43 59 -19 67
-28 76 -80 8 -53 8 -511 0 -525 -7 -12 -67 47 -260 255 -60 65 -119 128 -130
139 -27 29 -148 166 -171 195 -48 60 -65 71 -104 71 -31 0 -40 -4 -41 -17z"/>
<path d="M2845 2314 c-17 -18 -20 -57 -5 -85 9 -16 22 -19 83 -19 44 0 78 5
85 12 16 16 15 85 0 94 -7 5 -43 9 -80 11 -50 1 -71 -2 -83 -13z m131 -45 c3
-5 -18 -9 -45 -9 -28 0 -51 4 -51 10 0 12 88 11 96 -1z"/>
<path d="M1071 2271 c-12 -8 -9 -18 16 -58 68 -107 87 -151 73 -168 -7 -8 -25
-15 -39 -15 -23 0 -35 12 -74 73 -25 40 -49 81 -53 90 -8 21 -34 22 -34 2 0
-8 16 -45 36 -82 l36 -68 -34 -5 c-46 -8 -54 -4 -83 45 -28 48 -40 59 -55 50
-6 -3 3 -29 21 -60 l30 -54 -42 -28 c-23 -15 -44 -23 -46 -18 -12 35 -51 90
-66 93 -25 5 -21 -18 14 -87 30 -59 31 -62 16 -98 -8 -21 -18 -37 -23 -37 -4
1 -28 37 -54 80 -45 76 -72 105 -86 91 -10 -10 54 -134 123 -242 32 -49 57
-97 55 -106 -4 -21 -65 -54 -86 -46 -24 10 -19 36 9 49 38 17 31 65 -11 90
-30 18 -32 18 -59 -4 -24 -19 -27 -26 -22 -67 7 -61 41 -91 103 -91 25 0 55 7
68 15 27 18 28 17 81 -51 75 -95 321 -348 445 -455 l64 -56 -32 -40 c-61 -77
-50 -91 172 -229 79 -49 89 -55 181 -109 28 -16 68 -41 90 -55 74 -50 80 -49
115 19 17 34 33 61 37 61 13 0 138 -43 147 -51 5 -5 3 -22 -5 -41 -16 -39 -20
-59 -13 -70 10 -16 32 12 39 48 3 19 13 38 20 41 8 3 52 -8 97 -25 71 -25 219
-64 296 -78 73 -13 175 -34 178 -37 1 -1 0 -14 -3 -30 -4 -20 -11 -27 -30 -27
-13 0 -42 -9 -64 -21 l-40 -20 20 -32 c23 -37 61 -46 96 -23 33 22 62 20 70
-4 6 -20 29 -25 59 -14 22 8 20 41 -3 49 -10 3 -22 16 -25 28 -4 14 -9 18 -13
10 -5 -6 -17 -13 -28 -15 -24 -4 -32 33 -16 75 11 29 9 29 111 12 14 -2 46 -4
73 -4 l47 -1 0 -45 c0 -25 5 -45 10 -45 6 0 10 18 10 39 0 48 -2 47 168 43
112 -3 122 -5 122 -22 0 -31 18 -32 25 -1 6 28 7 29 76 30 39 0 74 3 78 5 3 2
27 7 51 11 25 3 52 8 60 10 8 2 35 7 60 10 24 4 48 9 52 11 4 2 13 -17 20 -43
20 -70 42 -70 33 1 -6 47 -5 56 8 56 15 0 200 52 317 90 61 19 65 20 77 3 7
-9 13 -23 13 -30 0 -18 30 -16 31 2 1 8 3 20 4 25 1 6 3 17 4 25 3 35 140 91
191 78 19 -5 22 -3 17 10 -7 19 0 25 88 72 39 21 108 62 154 92 76 49 85 53
100 39 25 -23 33 -20 27 12 -6 24 1 33 71 87 42 33 104 85 138 115 34 30 71
62 81 71 40 32 208 216 271 296 36 45 70 83 75 83 4 0 17 -6 28 -12 29 -18 47
10 19 30 -10 7 -19 17 -19 22 0 5 24 44 54 87 29 43 76 121 104 173 63 119 61
126 -45 175 -43 21 -145 71 -226 112 -82 41 -153 71 -157 67 -5 -5 -30 -47
-55 -94 -57 -105 -85 -133 -120 -120 -27 10 -55 4 -55 -12 0 -6 9 -25 20 -42
18 -30 18 -33 2 -58 -42 -63 -58 -84 -77 -103 -12 -11 -32 -36 -45 -57 -13
-20 -36 -43 -50 -51 -14 -9 -61 -52 -105 -97 -44 -45 -114 -104 -155 -132 -41
-28 -88 -62 -103 -77 -15 -14 -36 -26 -45 -26 -9 0 -16 -6 -15 -12 2 -7 -8
-15 -21 -19 -14 -3 -33 -15 -43 -26 -29 -33 -324 -164 -443 -197 -25 -7 -54
-19 -65 -26 -20 -12 -85 -28 -169 -41 -22 -3 -49 -10 -62 -14 -12 -5 -48 -12
-81 -15 -32 -4 -85 -10 -118 -15 -117 -15 -354 -8 -520 16 -36 5 -207 39 -245
49 -8 2 -35 8 -60 14 -232 53 -548 210 -793 395 -154 116 -448 430 -435 466 2
5 18 19 37 32 19 13 43 35 55 51 19 25 19 28 3 44 -19 19 -91 21 -151 4 -35
-9 -37 -8 -60 28 -13 20 -38 65 -55 99 -32 64 -36 68 -60 53z m4169 -117 c0
-41 -210 -350 -325 -476 -45 -49 -55 -56 -55 -37 0 6 -9 24 -20 39 l-20 29 52
61 c29 34 65 81 80 104 27 39 45 47 59 24 4 -6 14 -8 24 -5 15 6 15 9 -1 37
-22 36 -9 55 38 55 36 0 49 20 19 30 -20 6 -19 9 15 78 53 105 58 110 100 90
19 -9 34 -22 34 -29z m80 -29 c34 -17 34 -17 20 -63 -9 -34 -72 -136 -90 -147
-6 -3 -14 4 -19 17 -5 13 -16 29 -24 36 -13 12 -10 23 24 93 22 43 45 79 50
79 6 0 23 -7 39 -15z m120 -60 c26 -13 28 -18 20 -39 -27 -72 -83 -165 -153
-258 -26 -34 -31 -36 -55 -26 -52 22 -56 32 -28 65 14 17 26 34 26 38 0 5 14
26 30 49 52 70 77 112 90 150 13 40 26 44 70 21z m-4134 -26 c13 -21 -29 -36
-55 -20 -19 12 -5 31 24 31 13 0 27 -5 31 -11z m4265 -45 c9 -11 6 -27 -15
-76 -35 -79 -155 -248 -177 -248 -9 0 -27 9 -40 19 -24 19 -24 20 -6 54 10 19
33 51 52 72 18 21 52 78 75 126 43 86 43 87 71 77 15 -5 33 -16 40 -24z
m-4511 -49 c0 -8 -9 -19 -19 -25 -15 -8 -24 -6 -37 7 -15 16 -15 17 2 24 31
12 54 10 54 -6z m199 -11 c4 -5 36 -47 71 -92 34 -46 83 -105 109 -130 25 -26
53 -56 61 -66 13 -17 13 -19 0 -14 -8 3 -28 -1 -45 -7 -16 -7 -37 -10 -46 -6
-27 10 -99 100 -93 116 4 10 0 15 -13 15 -20 0 -26 6 -94 95 -65 85 -73 103
-51 107 23 5 92 -7 101 -18z m-302 -9 c4 -14 -79 -47 -90 -36 -15 15 31 53 60
49 15 -2 28 -7 30 -13z m173 -27 c6 -13 37 -57 69 -98 l59 -75 -26 -27 c-32
-35 -44 -35 -80 0 -45 44 -61 74 -52 97 4 11 2 38 -5 60 -6 22 -10 46 -7 53 6
20 32 14 42 -10z m-153 -55 c2 -5 -5 -21 -16 -34 -16 -20 -21 -21 -35 -10 -23
19 -20 40 7 51 25 10 39 8 44 -7z m-127 -17 c0 -15 11 -33 26 -45 16 -13 24
-27 20 -36 -7 -19 -40 -20 -55 -2 -14 18 -25 72 -18 92 10 24 27 18 27 -9z
m4250 4 c0 -6 12 -22 26 -35 l25 -23 -27 -41 c-27 -42 -38 -49 -49 -31 -12 19
-43 10 -49 -13 -5 -20 -11 -23 -36 -19 -16 2 -30 7 -30 9 0 3 22 31 49 62 26
31 53 66 60 79 12 23 31 30 31 12z m-4080 -44 c0 -13 -9 -34 -20 -47 -20 -24
-20 -24 -36 -4 -14 19 -13 22 16 48 37 33 40 33 40 3z m4210 -66 l21 -30 -31
-44 c-16 -25 -35 -48 -42 -52 -15 -10 -71 53 -61 69 62 97 78 106 113 57z
m-4077 -85 c-6 -17 -53 -47 -66 -42 -7 3 -26 24 -42 47 l-29 41 30 24 29 23
41 -41 c22 -23 39 -46 37 -52z m-223 65 c0 -5 -2 -10 -4 -10 -3 0 -8 5 -11 10
-3 6 -1 10 4 10 6 0 11 -4 11 -10z m406 -57 c43 -47 54 -76 34 -88 -5 -3 -10
-15 -10 -25 0 -30 -15 -32 -44 -5 -24 22 -26 30 -21 68 5 35 3 46 -14 61 -20
19 -20 36 1 36 6 0 31 -21 54 -47z m-365 18 c3 -1 36 -38 75 -83 38 -45 96
-108 128 -140 45 -44 55 -59 43 -63 -8 -4 -21 -20 -27 -36 -18 -44 -19 -43
-100 48 -179 202 -224 259 -216 271 4 7 56 8 97 3z m4367 -7 c12 -8 22 -22 22
-29 0 -8 -24 -43 -53 -77 -29 -35 -60 -73 -69 -86 -20 -29 -84 -96 -138 -145
-48 -44 -74 -45 -98 -5 l-16 28 59 57 c63 61 161 172 208 236 30 40 50 45 85
21z m-4098 -19 c0 -8 -4 -15 -10 -15 -5 0 -10 7 -10 15 0 8 5 15 10 15 6 0 10
-7 10 -15z m3717 -37 c9 -10 20 -15 24 -12 16 9 10 -13 -8 -34 -10 -11 -39
-39 -65 -62 l-48 -42 -32 31 -33 32 70 68 c50 48 71 63 74 52 1 -9 10 -24 18
-33z m155 5 c40 -46 35 -59 -62 -154 -50 -49 -95 -89 -100 -89 -4 0 -20 14
-35 32 l-26 31 75 73 c41 40 82 84 91 98 20 30 36 33 57 9z m-3912 -14 c0 -5
-9 -9 -20 -9 -19 0 -26 11 -14 23 8 8 34 -3 34 -14z m342 -19 c-30 -25 -22
-60 14 -60 13 0 24 3 24 8 0 4 4 13 9 21 10 15 40 -3 104 -64 60 -56 281 -196
412 -260 133 -65 343 -148 405 -160 58 -11 77 -29 72 -64 -2 -17 -8 -33 -12
-36 -9 -6 -155 35 -240 67 -52 20 -66 30 -68 49 -8 54 -75 83 -139 60 -31 -12
-38 -9 -120 35 -49 26 -106 59 -127 73 -21 14 -47 31 -58 37 -10 6 -29 20 -41
32 -12 11 -63 47 -113 80 -92 62 -174 140 -174 166 0 23 51 59 64 46 8 -8 4
-17 -12 -30z m3170 -15 c6 -14 15 -25 20 -25 20 0 5 -37 -22 -52 -29 -17 -30
-16 -55 14 l-26 31 27 28 c34 35 41 36 56 4z m-3512 -5 c31 0 47 -8 81 -40 23
-22 41 -41 38 -42 -2 -2 -18 -13 -36 -25 l-32 -23 -61 56 c-57 53 -80 94 -44
80 9 -3 33 -6 54 -6z m270 -41 c0 -36 -46 -74 -70 -59 -12 7 -9 15 15 40 29
30 55 39 55 19z m3154 -51 c16 -21 22 -36 16 -42 -7 -7 -14 -6 -22 2 -38 38
-128 -16 -128 -78 0 -33 -34 -74 -72 -86 -31 -9 -32 2 -4 27 29 26 34 54 10
67 -13 7 -4 18 48 55 34 25 74 55 88 66 33 27 34 26 64 -11z m185 0 l32 -33
-31 -27 c-16 -16 -35 -28 -40 -28 -13 0 -50 41 -50 57 0 14 39 63 51 63 3 0
21 -15 38 -32z m-3221 -56 l53 -47 -36 -28 -35 -28 -33 22 c-17 12 -42 31 -55
42 l-22 21 32 32 c18 17 35 32 38 32 3 1 29 -20 58 -46z m-203 9 c9 -16 -40
-65 -59 -58 -15 6 -15 9 -1 37 15 29 47 40 60 21z m3322 -43 c22 -21 32 -58
15 -58 -5 0 -37 -22 -73 -50 -55 -43 -66 -47 -78 -35 -12 11 -12 17 -1 29 7 9
18 16 25 16 13 0 45 58 45 82 0 16 19 38 34 38 5 0 20 -10 33 -22z m190 0 c13
-12 23 -26 23 -32 0 -12 -50 -66 -61 -66 -11 0 -59 52 -59 64 0 14 43 54 59
55 8 1 25 -9 38 -21z m-3350 -107 c2 -3 -8 -19 -21 -36 -19 -23 -28 -28 -39
-20 -8 6 -33 22 -56 38 -42 28 -54 60 -26 71 8 3 15 17 15 31 0 25 2 24 63
-26 34 -29 63 -55 64 -58z m-247 49 c0 -13 -49 -60 -61 -60 -15 0 -10 38 7 54
17 18 54 22 54 6z m3704 -57 c4 -10 -7 -27 -31 -49 l-38 -33 -28 32 -28 32 36
33 c34 31 36 32 59 17 13 -9 27 -23 30 -32z m-679 18 c3 -11 15 -23 26 -26 24
-8 24 -21 -1 -35 -15 -8 -26 -7 -44 6 -49 32 -115 -6 -133 -75 -8 -30 -15 -36
-53 -47 -25 -6 -69 -23 -99 -37 -32 -15 -64 -23 -79 -21 -14 3 -36 0 -49 -7
-18 -9 -26 -9 -38 1 -10 9 -15 9 -16 1 -1 -6 -3 -15 -4 -21 -1 -5 -3 -14 -4
-20 -1 -9 -51 -25 -108 -33 -18 -3 -55 -13 -82 -22 -27 -9 -68 -17 -92 -18
-42 -2 -43 -2 -46 35 -4 32 -1 39 19 47 45 17 94 30 168 45 128 26 423 139
560 214 67 37 67 37 75 13z m467 2 c27 -24 22 -55 -11 -75 -28 -15 -30 -15
-43 0 -38 46 -38 48 -17 70 24 26 46 28 71 5z m-264 -47 c19 -32 19 -46 1 -46
-4 0 -9 10 -11 22 -2 12 -13 28 -25 34 -13 6 -20 14 -16 17 14 15 32 5 51 -27z
m-3114 -17 c57 -44 61 -62 25 -95 -23 -21 -45 -13 -106 41 -44 37 -53 55 -30
55 8 0 22 9 32 20 10 11 20 20 22 20 3 0 28 -19 57 -41z m564 -71 c46 -27 86
-56 89 -64 9 -24 -17 -74 -39 -74 -14 0 -19 6 -17 23 8 67 -38 102 -123 93
-45 -4 -58 -3 -58 8 0 7 7 19 15 26 22 18 19 27 -17 44 -41 21 -53 20 -64 -3
-8 -17 -12 -18 -39 -7 l-30 13 38 18 c20 9 40 21 43 26 5 9 53 -15 202 -103z
m-322 56 c33 -25 60 -49 62 -54 2 -5 -4 -20 -14 -35 -16 -24 -16 -27 1 -45 10
-11 13 -20 7 -20 -6 0 -14 5 -17 10 -4 6 -23 19 -43 29 -20 10 -53 33 -72 50
-19 17 -38 31 -42 31 -13 0 -9 13 12 48 11 17 26 32 34 32 7 0 40 -20 72 -46z
m2799 36 c-3 -5 -12 -10 -18 -10 -7 0 -6 4 3 10 19 12 23 12 15 0z m239 -22
c25 -35 20 -65 -12 -82 -32 -17 -40 -13 -65 31 l-18 33 33 20 c41 25 43 25 62
-2z m-301 -37 c-5 -20 28 -47 41 -34 3 3 6 0 6 -8 0 -16 -14 -25 -115 -81 -65
-36 -70 -38 -82 -21 -12 15 -10 19 14 31 43 22 61 42 68 73 6 27 53 72 66 63
4 -2 5 -13 2 -23z m507 -43 c0 -4 -19 -20 -41 -35 -23 -16 -53 -36 -68 -45
-14 -10 -30 -18 -34 -18 -10 0 2 114 13 118 4 1 22 14 40 27 l34 25 27 -33
c16 -17 28 -35 29 -39z m-405 32 c-3 -5 -10 -10 -16 -10 -5 0 -9 5 -9 10 0 6
7 10 16 10 8 0 12 -4 9 -10z m-2690 -10 c3 -5 -1 -10 -9 -10 -9 0 -16 5 -16
10 0 6 4 10 9 10 6 0 13 -4 16 -10z m2793 -20 c12 -16 22 -33 22 -37 -1 -10
-177 -130 -229 -156 -76 -39 -79 -39 -96 -7 -22 43 -19 58 18 75 84 41 127 66
127 75 0 5 4 10 10 10 9 0 77 42 95 59 17 17 30 12 53 -19z m-3026 -39 c10
-11 44 -34 77 -51 60 -30 60 -30 49 -60 -14 -41 -2 -51 22 -20 15 19 22 22 31
13 9 -9 7 -19 -7 -44 -11 -18 -24 -34 -29 -36 -13 -4 -235 147 -248 168 -8 12
-5 24 12 48 21 29 24 30 49 17 15 -8 35 -24 44 -35z m212 20 c7 -11 -14 -20
-31 -13 -7 2 -13 8 -13 13 0 12 37 12 44 0z m2927 -24 c-1 -4 -1 -14 -1 -22 0
-8 -7 -15 -15 -15 -15 0 -21 31 -8 44 8 8 25 3 24 -7z m-2891 -12 c0 -25 -23
-65 -37 -65 -17 0 -16 2 4 45 17 36 33 46 33 20z m2385 -25 c20 -39 19 -57 -4
-70 -32 -17 -36 -12 -37 45 -1 63 16 73 41 25z m465 -12 c29 -45 30 -65 1 -79
-14 -8 -57 -34 -96 -59 -85 -56 -179 -110 -192 -110 -13 0 -46 59 -40 73 3 7
29 25 58 41 65 35 217 134 225 147 9 16 29 10 44 -13z m-3125 -88 c44 -31 95
-65 113 -76 32 -18 42 -47 21 -60 -6 -3 -30 7 -53 23 -22 16 -83 57 -133 92
-82 55 -92 65 -83 82 13 24 22 20 135 -61z m1210 55 c22 -2 67 -7 100 -11 33
-5 70 -8 83 -9 14 0 27 -10 35 -25 11 -22 20 -25 74 -28 54 -3 63 0 73 18 10
18 20 20 103 20 51 0 121 5 156 11 72 11 81 6 81 -47 0 -27 -4 -32 -32 -39
-48 -10 -381 -14 -463 -5 -38 4 -106 11 -150 14 -113 10 -189 28 -193 47 -1 9
2 28 8 43 9 25 13 27 47 21 21 -3 56 -8 78 -10z m-902 -12 c14 -14 37 -18 87
-18 38 0 72 -4 76 -8 10 -9 -26 -87 -40 -87 -13 0 -106 56 -145 87 -14 11 -21
25 -17 31 10 16 16 15 39 -5z m266 6 c24 -9 43 -8 77 1 24 7 47 10 50 8 8 -9
-30 -77 -44 -78 -24 0 -111 32 -122 46 -7 7 -9 18 -5 24 8 12 5 12 44 -1z
m1891 -16 c0 -16 3 -38 6 -50 5 -19 2 -21 -33 -21 -21 0 -49 -2 -63 -5 -14 -3
-28 -6 -32 -6 -5 -1 -8 -8 -8 -16 0 -17 -50 -45 -81 -45 -15 0 -19 4 -15 16 3
9 6 30 6 49 0 26 4 34 23 37 13 3 34 1 46 -3 15 -6 27 -3 41 9 73 67 110 78
110 35z m250 -55 c23 -38 22 -46 -8 -66 -20 -13 -24 -11 -52 19 -37 41 -38 55
-2 67 40 15 41 15 62 -20z m-2128 -12 c20 -9 41 -16 46 -16 20 0 23 -19 8 -55
-17 -41 -21 -41 -84 -16 -26 11 -55 22 -64 25 -15 4 -16 10 -6 38 16 47 27 59
46 48 10 -4 33 -15 54 -24z m389 7 c35 -13 36 -16 32 -51 -8 -61 -10 -62 -93
-41 -41 11 -78 23 -83 28 -4 4 4 27 20 50 30 46 41 47 124 14z m-662 -15 c27
-18 63 -41 80 -50 l31 -17 -17 -36 c-9 -20 -24 -35 -34 -35 -15 0 -107 49
-153 82 -18 14 -18 15 -1 51 9 20 24 37 31 37 8 0 36 -15 63 -32z m2307 -24
c16 -38 6 -55 -38 -60 -29 -4 -36 -1 -46 21 -17 38 -15 55 11 65 37 15 60 7
73 -26z m-1266 -19 c291 -23 348 -24 487 -11 77 7 82 5 90 -45 4 -25 0 -31
-24 -40 -15 -5 -88 -11 -163 -12 l-135 -2 0 30 c0 44 -11 56 -41 45 -13 -5
-66 -12 -117 -15 -50 -3 -99 -8 -108 -10 -35 -11 -220 -13 -259 -3 -35 9 -41
14 -36 32 3 12 6 29 6 38 0 23 30 25 125 12 44 -6 123 -15 175 -19z m722 -17
c-5 -53 -8 -56 -55 -62 -32 -4 -38 -2 -43 19 -14 58 6 81 76 84 24 1 25 -2 22
-41z m-1244 -19 c63 -22 122 -39 132 -39 15 0 17 -6 14 -32 -8 -57 -12 -61
-47 -55 -60 9 -92 18 -162 43 -121 45 -116 42 -111 68 7 38 29 67 46 60 8 -4
66 -24 128 -45z m1678 15 c9 -20 12 -40 7 -45 -20 -20 -310 -109 -355 -109
-20 0 -50 54 -41 76 4 12 163 58 198 57 46 -1 54 -4 60 -23 10 -31 28 -24 23
10 -6 38 17 47 38 15 18 -28 39 -24 24 5 -5 10 -7 26 -4 34 10 27 34 18 50
-20z m269 -35 c8 -15 15 -30 15 -33 0 -11 -51 -38 -84 -46 l-35 -8 1 48 c0 43
3 49 31 62 39 19 53 14 72 -23z m-2497 -34 c83 -47 87 -51 76 -79 -8 -20 -28
-20 -44 -1 -7 9 -44 32 -81 51 -38 20 -69 42 -69 48 0 14 21 37 29 32 3 -2 43
-25 89 -51z m257 25 c66 -17 70 -22 56 -69 -15 -50 -37 -53 -111 -16 -55 28
-63 51 -35 93 12 16 20 19 33 12 9 -5 35 -14 57 -20z m2099 -16 c8 -21 -21
-87 -36 -82 -6 2 -17 20 -23 39 -11 31 -10 35 9 46 29 17 43 16 50 -3z m-1472
-26 c31 -1 37 -11 31 -55 -4 -22 -9 -30 -19 -26 -8 3 -14 0 -14 -5 0 -11 -45
-7 -113 9 -34 9 -37 12 -31 37 14 57 19 60 71 50 26 -5 60 -9 75 -10z m936
-53 c-3 -25 -9 -31 -39 -39 -54 -13 -69 -4 -69 43 0 39 1 40 43 49 50 11 70
-5 65 -53z m-1313 -2 c22 -8 51 -17 65 -19 14 -3 42 -9 63 -15 33 -9 37 -13
31 -32 -18 -59 -24 -68 -42 -63 -9 3 -66 19 -125 36 -116 32 -167 54 -167 71
0 5 7 25 15 44 l14 35 53 -21 c29 -12 71 -28 93 -36z m1761 32 c18 -28 16 -54
-6 -66 -48 -24 -262 -86 -327 -95 -50 -6 -52 -5 -58 19 -13 51 -5 59 85 83 47
12 126 36 175 52 112 37 111 37 131 7z m-1138 -1 c20 -6 23 -12 20 -48 l-3
-41 -83 2 c-103 1 -112 5 -112 42 0 27 4 31 38 36 20 4 42 8 47 10 17 6 69 5
93 -1z m535 -50 c2 -33 -1 -38 -24 -45 -15 -4 -60 -6 -100 -5 l-74 1 -3 38
c-4 48 -26 44 -30 -5 -3 -38 -18 -48 -73 -48 -35 0 -48 18 -42 58 6 34 21 42
78 40 45 -1 239 13 244 18 10 10 23 -16 24 -52z m-375 -2 c5 -46 -9 -58 -57
-54 -42 4 -44 7 -41 57 3 38 12 43 58 36 33 -6 37 -10 40 -39z m-428 -51 c33
-6 35 -9 35 -46 0 -37 -2 -40 -30 -44 -16 -1 -61 2 -98 9 -55 10 -67 15 -63
28 3 10 8 29 12 44 6 27 8 28 58 22 28 -3 67 -9 86 -13z m984 -13 c16 -62 9
-71 -67 -82 -40 -6 -43 -4 -51 47 -4 24 0 30 27 42 50 22 84 19 91 -7z m-726
-17 c26 -7 35 -30 26 -68 -6 -21 -10 -22 -78 -18 -39 3 -80 7 -91 9 -11 3 -27
5 -36 5 -12 1 -15 9 -13 34 7 57 7 57 90 50 43 -3 89 -9 102 -12z m560 -38 c3
-40 2 -43 -30 -51 -18 -5 -64 -9 -103 -8 l-70 1 -3 43 c-2 23 0 42 5 43 4 0
39 2 76 4 38 2 72 6 75 10 3 3 15 5 27 3 16 -2 21 -12 23 -45z m-396 14 c4 -6
7 -27 6 -44 -1 -32 -2 -33 -48 -33 -56 0 -75 17 -65 57 3 15 12 31 18 35 17
11 80 0 89 -15z m156 -34 c3 -47 9 -43 -73 -47 -47 -3 -55 4 -53 38 3 48 15
57 72 54 l51 -3 3 -42z"/>
<path d="M5244 2025 c-8 -19 3 -35 26 -35 19 0 30 17 23 38 -6 17 -42 15 -49
-3z"/>
<path d="M2471 900 c-16 -9 -6 -30 15 -30 15 0 20 25 6 34 -4 2 -14 1 -21 -4z"/>
<path d="M2346 2191 c-2 -3 -4 -158 -5 -343 -2 -320 -1 -338 16 -339 10 -1 33
-2 51 -3 18 -1 37 1 42 4 5 3 10 76 11 163 1 124 5 157 15 158 8 1 24 2 37 3
19 1 22 6 22 46 0 45 0 45 -37 48 l-37 3 2 82 2 82 35 5 c33 5 35 7 38 50 l3
45 -96 1 c-53 0 -97 -2 -99 -5z"/>
<path d="M2646 2192 c-3 -3 -6 -138 -6 -299 0 -275 -1 -294 -17 -291 -15 3
-19 18 -23 98 l-5 95 -50 0 -50 0 -3 -107 c-4 -157 14 -181 137 -187 29 -1 65
3 81 9 52 21 55 41 55 310 0 136 -2 276 -5 311 l-5 64 -52 2 c-28 0 -54 -2
-57 -5z"/>
<path d="M2846 2191 c-2 -3 -7 -44 -10 -91 -4 -47 -9 -98 -11 -115 -7 -47 -34
-380 -37 -455 -1 -21 8 -25 52 -26 47 -1 50 1 51 25 1 14 3 40 4 56 2 17 3 38
4 48 1 11 9 17 26 17 14 0 25 -1 25 -2 1 -2 4 -32 7 -68 3 -36 8 -67 10 -70 3
-3 30 -6 60 -7 l55 -1 -7 71 c-4 40 -8 83 -10 97 -1 14 -6 57 -9 95 -7 76 -15
145 -21 185 -2 14 -7 61 -11 105 -4 44 -8 89 -10 100 -1 11 -3 25 -3 31 -1 12
-159 16 -165 5z m89 -281 c11 -167 11 -170 -11 -170 -14 0 -16 13 -11 103 4
56 6 120 7 141 0 72 9 32 15 -74z"/>
<path d="M3111 2186 c-4 -6 -7 -162 -6 -346 l0 -335 51 -3 c62 -4 59 -12 59
170 0 130 7 166 18 88 5 -36 34 -197 43 -237 4 -21 10 -23 63 -23 38 0 60 4
63 13 3 6 4 161 4 342 l-1 330 -52 3 -53 3 -1 -53 c0 -29 0 -96 1 -148 1 -52
-1 -92 -3 -90 -3 3 -18 66 -33 140 -15 74 -30 138 -33 142 -10 12 -111 15
-120 4z"/>
<path d="M3544 2192 c-30 -2 -49 -11 -69 -32 l-28 -29 -1 -270 c0 -149 2 -284
7 -301 16 -64 140 -84 199 -33 14 13 17 12 23 -6 4 -14 15 -21 31 -21 l24 0 0
175 c0 96 -3 175 -7 176 -43 6 -120 5 -129 -2 -16 -13 -11 -79 6 -89 20 -12
21 -147 2 -162 -9 -8 -16 -8 -23 -1 -13 13 -12 484 0 496 20 20 31 -7 31 -74
l0 -69 60 0 60 0 0 89 c0 121 -20 145 -130 155 -8 1 -34 0 -56 -2z"/>
<path d="M3784 1950 c7 -199 10 -261 15 -301 2 -11 70 -8 78 4 9 15 9 18 19
304 l7 232 -63 -2 -63 -2 7 -235z"/>
<path d="M1820 1916 c0 -50 4 -86 10 -87 6 -1 26 -1 45 -1 59 0 65 1 65 16 0
11 7 13 28 7 15 -4 33 -6 39 -4 7 3 20 -3 29 -12 16 -16 62 -18 57 -2 -2 4 6
16 17 27 21 21 26 55 10 65 -32 20 22 26 93 10 22 -4 47 4 47 14 0 18 -127 46
-192 44 -122 -5 -142 -5 -195 2 l-53 7 0 -86z m108 14 c-1 -22 -6 -40 -10 -40
-4 0 -8 18 -8 40 0 22 5 40 10 40 6 0 10 -17 8 -40z m-68 -80 c0 -5 -4 -10
-10 -10 -5 0 -10 5 -10 10 0 6 5 10 10 10 6 0 10 -4 10 -10z m40 0 c0 -5 -4
-10 -10 -10 -5 0 -10 5 -10 10 0 6 5 10 10 10 6 0 10 -4 10 -10z"/>
<path d="M4085 1978 c-22 -5 -57 -14 -78 -19 -55 -14 -37 -27 38 -27 72 0 84
-4 67 -25 -17 -20 32 -97 62 -97 12 0 27 5 34 12 6 6 35 12 64 13 29 2 47 1
40 -2 -27 -10 2 -23 54 -23 l54 0 0 85 0 85 -53 0 c-29 0 -58 -5 -64 -11 -7
-7 -26 -6 -64 5 -59 18 -95 19 -154 4z m245 -70 c0 -16 -4 -28 -10 -28 -5 0
-10 19 -10 43 0 31 3 38 10 27 5 -8 10 -27 10 -42z m30 -74 c0 -8 -4 -12 -10
-9 -5 3 -10 10 -10 16 0 5 5 9 10 9 6 0 10 -7 10 -16z m40 1 c0 -8 -4 -15 -10
-15 -5 0 -10 7 -10 15 0 8 5 15 10 15 6 0 10 -7 10 -15z"/>
<path d="M5560 1655 c-28 -34 -5 -106 57 -176 93 -107 114 -120 109 -71 -2 15
-4 32 -5 38 0 6 -17 31 -36 55 -28 35 -34 50 -29 73 6 27 4 28 -18 23 -31 -8
-72 26 -65 54 6 23 3 24 -13 4z"/>
<path d="M5597 1653 c9 -25 26 -34 35 -20 8 14 -9 37 -28 37 -9 0 -11 -6 -7
-17z"/>
<path d="M4475 1653 c-78 -19 -221 -71 -280 -102 -188 -99 -467 -310 -507
-384 -15 -28 3 -19 54 28 40 37 152 121 258 192 72 48 287 161 369 193 69 26
158 49 210 53 12 1 21 7 21 14 0 13 -80 17 -125 6z"/>
<path d="M3780 1546 l0 -44 43 -3 c72 -6 77 -3 77 47 l0 44 -60 0 -60 0 0 -44z"/>
<path d="M5466 1518 c-8 -18 -12 -39 -9 -47 18 -59 34 -84 91 -146 l65 -70
-32 -3 c-34 -4 -51 -26 -33 -44 16 -16 57 -1 71 26 18 34 8 82 -31 142 -18 27
-33 60 -33 74 0 21 -4 25 -26 22 -32 -4 -62 35 -47 61 5 9 6 17 3 17 -3 0 -12
-14 -19 -32z"/>
<path d="M5510 1529 c7 -11 14 -18 17 -15 8 8 -5 36 -17 36 -7 0 -7 -6 0 -21z"/>
<path d="M5645 1360 c-10 -16 4 -30 29 -30 22 0 46 17 46 32 0 12 -68 10 -75
-2z"/>
<path d="M2729 1300 c-8 -5 -14 -39 -17 -93 l-4 -85 40 -7 c23 -4 51 -4 62 0
30 10 41 45 22 73 -14 21 -13 25 1 39 12 12 13 21 5 39 -6 13 -14 24 -17 24
-3 0 -22 4 -42 9 -21 5 -43 5 -50 1z m66 -51 c0 -30 -30 -38 -38 -10 -5 21 11
43 28 38 5 -2 10 -14 10 -28z m5 -90 c0 -11 -30 -39 -41 -39 -13 0 -11 54 3
68 10 10 15 9 25 -5 7 -9 13 -20 13 -24z"/>
<path d="M2886 1207 c-18 -13 -18 -14 -1 -21 11 -4 22 -1 26 6 11 18 23 3 12
-16 -5 -9 -7 -32 -5 -50 4 -36 28 -51 53 -35 11 7 11 9 1 9 -8 0 -13 10 -12
23 4 44 0 66 -16 81 -19 20 -35 20 -58 3z"/>
<path d="M3032 1194 c-31 -21 -28 -52 8 -72 31 -18 39 -37 18 -45 -7 -3 -4 -6
7 -6 23 -1 47 31 39 52 -3 8 -18 24 -35 36 -16 12 -27 26 -24 32 4 5 11 6 17
3 7 -4 8 -2 4 4 -9 15 -7 15 -34 -4z"/>
<path d="M3152 1194 c-29 -20 -28 -40 6 -61 15 -9 29 -18 31 -20 2 -1 -2 -9
-9 -18 -11 -13 -9 -15 14 -15 19 0 27 6 32 24 3 14 2 31 -2 38 -5 7 -7 24 -5
38 3 21 1 22 -13 11 -9 -7 -13 -17 -10 -22 3 -5 1 -9 -5 -9 -17 0 -23 20 -11
35 16 20 0 19 -28 -1z"/>
<path d="M3080 1174 c0 -8 5 -12 10 -9 6 3 10 10 10 16 0 5 -4 9 -10 9 -5 0
-10 -7 -10 -16z"/>
<path d="M1074 1162 c-17 -9 -60 -36 -94 -59 -35 -24 -66 -43 -70 -43 -4 0 -5
14 -2 30 4 27 1 30 -22 30 -20 0 -26 -5 -26 -23 0 -44 23 -60 82 -61 43 -1 63
5 96 26 32 21 48 26 72 21 29 -5 31 -4 25 19 -5 19 -1 27 19 37 13 8 32 11 40
8 27 -11 17 7 -11 21 -37 17 -72 15 -109 -6z"/>
<path d="M2878 1149 c-22 -12 -23 -48 -2 -56 22 -8 32 7 25 39 -5 22 -9 25
-23 17z"/>
<path d="M1193 1123 c-18 -7 -16 -23 2 -23 8 0 15 7 15 15 0 8 -1 15 -2 14 -2
0 -9 -3 -15 -6z"/>
<path d="M3007 1114 c-12 -12 -8 -21 12 -27 13 -3 18 0 17 11 -3 18 -19 26
-29 16z"/>
<path d="M3130 1106 c0 -17 14 -29 23 -20 8 8 -3 34 -14 34 -5 0 -9 -6 -9 -14z"/>
<path d="M3285 1090 c3 -5 13 -10 21 -10 8 0 14 5 14 10 0 6 -9 10 -21 10 -11
0 -17 -4 -14 -10z"/>
<path d="M1212 1064 c-24 -7 -57 -24 -73 -38 -17 -15 -34 -26 -38 -26 -4 0
-23 -13 -41 -30 -42 -37 -51 -38 -44 -1 7 33 -10 49 -31 31 -21 -17 -19 -27
10 -55 34 -35 84 -33 151 6 43 24 57 28 73 20 29 -16 33 -14 29 15 -4 37 42
74 69 54 13 -10 13 -8 -2 7 -28 29 -53 33 -103 17z"/>
<path d="M1280 1000 c0 -23 4 -24 31 -10 27 15 24 30 -6 30 -18 0 -25 -5 -25
-20z"/>
<path d="M4769 878 c-57 -35 -301 -168 -308 -168 -4 0 -27 -13 -52 -28 -24
-16 -98 -57 -164 -92 -66 -34 -145 -79 -175 -99 -30 -20 -62 -39 -70 -43 -8
-4 -10 -7 -4 -7 6 -1 33 9 60 21 45 20 296 112 524 193 52 19 127 46 165 60
39 15 84 31 100 37 17 6 36 17 44 24 30 28 -1 26 -86 -6 -428 -159 -464 -172
-470 -167 -1 2 46 28 105 59 59 31 145 77 192 103 47 25 108 58 137 72 29 15
54 32 57 39 8 22 -21 23 -55 2z"/>
<path d="M3064 439 c-37 -10 -63 -52 -48 -77 6 -9 23 -19 37 -23 21 -6 33 -1
57 21 54 51 27 98 -46 79z"/>
<path d="M3375 410 c-9 -15 3 -30 24 -30 23 0 31 9 24 26 -6 16 -39 19 -48 4z"/>
<path d="M3232 380 c-12 -5 -32 -19 -44 -30 -21 -19 -22 -23 -8 -48 21 -36 66
-41 99 -11 13 12 37 25 54 28 40 8 46 28 11 37 -15 4 -39 13 -53 20 -30 16
-29 16 -59 4z"/>
<path d="M2877 352 c-23 -5 -21 -23 3 -29 19 -5 20 -7 5 -23 -23 -26 -25 -67
-5 -85 38 -34 121 32 95 75 -4 6 1 20 10 30 13 14 14 20 3 26 -13 8 -80 12
-111 6z"/>
<path d="M2754 235 c-8 -20 -5 -23 31 -27 24 -2 30 1 30 17 0 26 -52 35 -61
10z"/>
</g>
</svg>
